<svg width="957" height="48" viewBox="0 0 957 48" fill="none" xmlns="http://www.w3.org/2000/svg">
<rect width="956" height="48" fill="black" fill-opacity="0"/>
<path d="M93.3751 48H0L67.7834 0H161.159L93.3751 48Z" fill="#B13412"/>
<path d="M206.375 48H113L180.899 0H274.274L206.375 48Z" fill="#3C4E65"/>
<path d="M320.375 48H227L294.783 0H388.159L320.375 48Z" fill="#B13412"/>
<path d="M434.375 48H341L408.899 0H502.159L434.375 48Z" fill="#3C4E65"/>
<path d="M547.375 48H454L521.899 0H615.274L547.375 48Z" fill="#B13412"/>
<path d="M661.375 48H568L635.783 0H729.159L661.375 48Z" fill="#3C4E65"/>
<path d="M774.375 48H681L748.783 0H842.159L774.375 48Z" fill="#B13412"/>
<path d="M888.375 48H795L862.899 0H956.274L888.375 48Z" fill="#3C4E65"/>
</svg>
